<svg width="150" height="150" viewBox="0 0 200 200" xmlns="http://www.w3.org/2000/svg">
  <!-- фон під колір сайту -->
  <rect width="200" height="200" fill="#f3efe4"/>

  <!-- велика восьмикутна зірка -->
  <polygon
    points="100,10 140,60 190,60 150,100 190,140 140,140 100,190 60,140 10,140 50,100 10,60 60,60"
    fill="#5a4633"/>

  <!-- внутрішня зірка -->
  <polygon
    points="100,35 132,70 165,70 135,100 165,130 132,130 100,165 68,130 35,130 65,100 35,70 68,70"
    fill="#b18a5e"/>

  <!-- тонкий контур для етно-ефекту -->
  <polygon
    points="100,10 140,60 190,60 150,100 190,140 140,140 100,190 60,140 10,140 50,100 10,60 60,60"
    fill="none"
    stroke="#b18a5e"
    stroke-width="4"/>
</svg>
